<svg width="476" height="103" viewBox="0 0 476 103" fill="none" xmlns="http://www.w3.org/2000/svg">
    <path d="M36.52 70.328H16.36V101H0.376001V2.35999H36.52C58.888 2.35999 70.072 13.4 70.072 35.48C70.072 46.808 67.288 55.448 61.72 61.4C56.152 67.352 47.752 70.328 36.52 70.328ZM16.36 16.184V56.504H36.376C47.896 56.504 53.656 49.496 53.656 35.48C53.656 28.76 52.264 23.864 49.48 20.792C46.792 17.72 42.424 16.184 36.376 16.184H16.36ZM94.3821 101L99.7101 79.832H137.582L142.91 101H159.038L134.558 2.35999H102.734L78.3981 101H94.3821ZM122.318 15.752L134.414 65.72H102.878L115.118 15.752H122.318ZM214.857 16.328V19.208L169.209 85.736V101H234.009V87.032H188.217V84.296L234.009 17.768V2.35999H169.209V16.328H214.857ZM286.019 102.584C278.819 102.584 272.819 101.624 268.019 99.704C263.315 97.784 259.523 94.76 256.643 90.632C253.859 86.504 251.891 81.224 250.739 74.792C249.587 68.264 249.011 60.44 249.011 51.32C249.011 42.2 249.587 34.472 250.739 28.136C251.891 21.704 253.859 16.472 256.643 12.44C259.523 8.408 263.315 5.48 268.019 3.65599C272.819 1.73599 278.819 0.775994 286.019 0.775994C290.339 0.775994 294.803 1.06399 299.411 1.63999C304.115 2.216 309.059 3.128 314.243 4.376L313.667 17.336C305.315 15.8 296.675 15.032 287.747 15.032C283.427 15.032 279.827 15.608 276.947 16.76C274.163 17.912 271.907 19.928 270.179 22.808C268.451 25.592 267.251 29.336 266.579 34.04C265.907 38.648 265.571 44.504 265.571 51.608C265.571 58.712 265.907 64.616 266.579 69.32C267.251 74.024 268.403 77.816 270.035 80.696C271.667 83.48 273.875 85.448 276.659 86.6C279.539 87.752 283.139 88.328 287.459 88.328C296.195 88.328 304.931 87.608 313.667 86.168L314.099 99.416C304.403 101.528 295.043 102.584 286.019 102.584ZM340.155 101L345.483 79.832H383.355L388.683 101H404.811L380.331 2.35999H348.507L324.171 101H340.155ZM368.091 15.752L380.187 65.72H348.651L360.891 15.752H368.091ZM475.606 86.744H436.294V2.35999H420.31V101H475.606V86.744Z" fill="black" />
</svg>